<svg xmlns="http://www.w3.org/2000/svg" width="968" height="679" viewBox="0 0 968 679" version="1.1"><path d="M 254.474 183.042 C 254.119 183.617, 254.256 184.630, 254.780 185.294 C 255.304 185.957, 256.864 188.525, 258.248 191 C 260.275 194.625, 271.608 214.275, 291.990 249.500 C 292.945 251.150, 298.008 259.925, 303.241 269 C 308.475 278.075, 316.915 292.700, 321.997 301.500 C 327.079 310.300, 337.252 327.939, 344.604 340.697 C 351.956 353.456, 360.003 367.330, 362.486 371.530 C 364.969 375.729, 367 379.396, 367 379.678 C 367 379.960, 367.831 381.386, 368.847 382.846 C 369.863 384.306, 372.065 387.975, 373.739 391 C 375.413 394.025, 381.614 404.825, 387.519 415 C 393.423 425.175, 402.518 440.925, 407.730 450 C 412.941 459.075, 417.544 466.950, 417.959 467.500 C 418.373 468.050, 420.072 470.975, 421.734 474 C 424.448 478.938, 448.417 520.549, 463.496 546.500 C 466.692 552, 470.189 558.075, 471.267 560 C 472.346 561.925, 474.414 565.525, 475.864 568 C 477.314 570.475, 479.457 574.281, 480.627 576.459 C 481.796 578.636, 483.198 580.566, 483.742 580.747 C 484.592 581.031, 487.792 575.885, 497.268 559 C 498.349 557.075, 502.268 550.325, 505.977 544 C 513.593 531.014, 531.035 500.788, 534.799 494.053 C 536.166 491.606, 538.634 487.331, 540.282 484.553 C 541.931 481.774, 544.048 478.150, 544.987 476.500 C 547.068 472.846, 566.588 439.054, 580.802 414.500 C 586.533 404.600, 592.587 394.025, 594.255 391 C 595.923 387.975, 597.625 385.050, 598.037 384.500 C 598.450 383.950, 599.667 381.925, 600.743 380 C 603.612 374.865, 638.461 314.484, 650.955 293 C 656.872 282.825, 669.726 260.550, 679.519 243.500 C 689.312 226.450, 700.830 206.542, 705.116 199.260 C 709.402 191.977, 713.041 185.227, 713.204 184.260 C 713.486 182.585, 702.431 182.488, 484.310 182.248 C 325.623 182.073, 254.922 182.317, 254.474 183.042" stroke="none" fill="#ffffff" fill-rule="evenodd"/><path d="M 369 1.122 C 352.225 1.561, 327.250 2.396, 313.500 2.976 C 299.750 3.557, 275.675 4.480, 260 5.028 C 244.325 5.576, 227 6.462, 221.500 6.997 C 216 7.532, 203.400 8.433, 193.500 9 C 160.354 10.899, 118.927 16.516, 101.562 21.468 C 86.494 25.764, 67.428 36.916, 54.814 48.813 C 28.242 73.873, 17.932 98.577, 10.499 155 C 9.738 160.775, 8.628 168.875, 8.033 173 C 6.165 185.934, 2.998 228.116, 1.014 266.500 C -0.321 292.347, -0.309 385.391, 1.034 412.500 C 2.821 448.583, 6.159 493.321, 7.971 505.500 C 8.545 509.350, 9.678 517.675, 10.491 524 C 17.710 580.189, 28.347 605.449, 55.446 630.756 C 76.872 650.766, 102.488 660.896, 142 664.984 C 147.775 665.582, 155.200 666.513, 158.500 667.053 C 161.800 667.593, 173.950 668.703, 185.500 669.519 C 197.050 670.335, 212.575 671.443, 220 671.983 C 232.961 672.924, 253.260 673.831, 309.500 675.980 C 414.335 679.985, 551.354 679.988, 658 675.985 C 709.110 674.067, 734.619 672.942, 748 672.017 C 783.122 669.587, 803.761 667.981, 806.500 667.465 C 808.150 667.154, 815.463 666.261, 822.752 665.480 C 867.661 660.667, 892.453 650.444, 916.071 627 C 934.956 608.254, 945.236 588.249, 951.455 558.143 C 954.515 543.328, 957.620 523.458, 958.978 510 C 959.561 504.225, 960.495 496.350, 961.055 492.500 C 962.237 484.369, 964.570 451.429, 966.049 422 C 966.616 410.725, 967.512 400.719, 968.040 399.764 C 969.356 397.384, 969.316 275.964, 968 278 C 967.301 279.082, 967.016 278.107, 966.977 274.500 C 966.839 261.505, 962.326 194.505, 961.050 186.500 C 960.524 183.200, 959.591 175.325, 958.976 169 C 957.901 157.932, 955.170 139.496, 952.904 128 C 949.663 111.562, 948.817 108.113, 945.994 99.824 C 932.354 59.777, 899.702 29.690, 859 19.665 C 841.967 15.469, 807.076 11.079, 774.500 9.033 C 765.150 8.446, 752.550 7.525, 746.500 6.987 C 740.450 6.449, 722.900 5.560, 707.500 5.011 C 692.100 4.462, 667.800 3.554, 653.500 2.992 C 576.797 -0.019, 445.486 -0.882, 369 1.122 M 254.474 183.042 C 254.119 183.617, 254.256 184.630, 254.780 185.294 C 255.304 185.957, 256.864 188.525, 258.248 191 C 260.275 194.625, 271.608 214.275, 291.990 249.500 C 292.945 251.150, 298.008 259.925, 303.241 269 C 308.475 278.075, 316.915 292.700, 321.997 301.500 C 327.079 310.300, 337.252 327.939, 344.604 340.697 C 351.956 353.456, 360.003 367.330, 362.486 371.530 C 364.969 375.729, 367 379.396, 367 379.678 C 367 379.960, 367.831 381.386, 368.847 382.846 C 369.863 384.306, 372.065 387.975, 373.739 391 C 375.413 394.025, 381.614 404.825, 387.519 415 C 393.423 425.175, 402.518 440.925, 407.730 450 C 412.941 459.075, 417.544 466.950, 417.959 467.500 C 418.373 468.050, 420.072 470.975, 421.734 474 C 424.448 478.938, 448.417 520.549, 463.496 546.500 C 466.692 552, 470.189 558.075, 471.267 560 C 472.346 561.925, 474.414 565.525, 475.864 568 C 477.314 570.475, 479.457 574.281, 480.627 576.459 C 481.796 578.636, 483.198 580.566, 483.742 580.747 C 484.592 581.031, 487.792 575.885, 497.268 559 C 498.349 557.075, 502.268 550.325, 505.977 544 C 513.593 531.014, 531.035 500.788, 534.799 494.053 C 536.166 491.606, 538.634 487.331, 540.282 484.553 C 541.931 481.774, 544.048 478.150, 544.987 476.500 C 547.068 472.846, 566.588 439.054, 580.802 414.500 C 586.533 404.600, 592.587 394.025, 594.255 391 C 595.923 387.975, 597.625 385.050, 598.037 384.500 C 598.450 383.950, 599.667 381.925, 600.743 380 C 603.612 374.865, 638.461 314.484, 650.955 293 C 656.872 282.825, 669.726 260.550, 679.519 243.500 C 689.312 226.450, 700.830 206.542, 705.116 199.260 C 709.402 191.977, 713.041 185.227, 713.204 184.260 C 713.486 182.585, 702.431 182.488, 484.310 182.248 C 325.623 182.073, 254.922 182.317, 254.474 183.042 M 0.470 339 C 0.470 372.825, 0.596 386.662, 0.749 369.750 C 0.903 352.837, 0.903 325.162, 0.749 308.250 C 0.596 291.337, 0.470 305.175, 0.470 339" stroke="none" fill="#f44424" fill-rule="evenodd"/></svg>